<svg id="BieuDo" xmlns="http://www.w3.org/2000/svg" width="512.413" height="512.001" viewBox="0 0 512.413 512.001">
  <g id="Group_2374" data-name="Group 2374" transform="translate(3501 -8962)">
    <path id="Path_3655" data-name="Path 3655" d="M454.413,169.529c0,73.526-57.411,122.546-144.324,196.737-14.537,12.406-30.976,26.443-48.038,41.392a18.958,18.958,0,0,1-24.988,0c-1.832-1.6-3.665-3.209-5.48-4.787-15.124-13.187-29.608-25.549-42.549-36.6C102.119,292.074,44.7,243.054,44.7,169.529,44.7,100.536,92.808,48.5,156.61,48.5c23.015,0,44.1,7.295,62.662,21.682a135.184,135.184,0,0,1,30.283,33.659A135.183,135.183,0,0,1,279.84,70.182a100.858,100.858,0,0,1,45.11-20.2A102.581,102.581,0,0,1,342.5,48.5c63.8,0,111.91,52.036,111.91,121.029Z" transform="translate(-3443 8953.5)" fill="#ff6e6e"/>
    <path id="Path_3656" data-name="Path 3656" d="M480.68,169.529c0,73.526-57.411,122.546-144.324,196.737-14.537,12.406-30.976,26.443-48.038,41.392a18.958,18.958,0,0,1-24.988,0c-1.832-1.6-3.665-3.209-5.48-4.787,15.1-13.16,29.582-25.531,42.558-36.6,86.914-74.192,144.324-123.212,144.324-196.737,0-62.189-39.086-110.6-93.516-119.547A102.582,102.582,0,0,1,368.77,48.5c63.8,0,111.91,52.036,111.91,121.029Z" transform="translate(-3469.267 8953.5)" fill="#f44e92"/>
  </g>
  <path id="Path_3660" data-name="Path 3660" d="M501.333,448H64V10.67a10.667,10.667,0,1,0-21.333,0V448h-32a10.667,10.667,0,1,0,0,21.334h32v32a10.667,10.667,0,1,0,21.333,0v-32H501.333a10.667,10.667,0,1,0,0-21.333Z" transform="translate(0 -0.003)" fill="#455a64"/>
  <g id="Group_2373" data-name="Group 2373" transform="translate(3521 -8934)">
    <path id="Path_3661" data-name="Path 3661" d="M94.022,359.324a8.687,8.687,0,0,1-6.775-14.106l69.487-86.86a8.687,8.687,0,0,1,6.289-3.266,8.547,8.547,0,0,1,6.619,2.537l26.875,26.892L242.9,207.2a8.687,8.687,0,0,1,6.948-4.2,9.085,9.085,0,0,1,7.365,3.248L280.457,235.3l30.9-146.983a8.686,8.686,0,0,1,14.645-4.343l45.028,45.028L417.14,67.476a8.686,8.686,0,1,1,13.908,10.408l-.011.014-52.116,69.487a8.685,8.685,0,0,1-13.081.938l-40.772-40.79-31.444,149.4a8.686,8.686,0,0,1-15.287,3.631L251.395,226.9,205.706,303.04a8.685,8.685,0,0,1-13.584,1.737l-27.795-27.795-63.512,79.095A8.69,8.69,0,0,1,94.022,359.324Z" transform="translate(-3519 9007.384)" fill="#cdeaf7"/>
    <g id="Group_2371" data-name="Group 2371" transform="translate(-3127.674 9046.76)">
      <g id="Group_2371-2" data-name="Group 2371" transform="translate(0 0)">
        <path id="Path_3658" data-name="Path 3658" d="M397.7,248.055a34.817,34.817,0,1,1-34.8-34.8A34.838,34.838,0,0,1,397.7,248.055Z" transform="translate(-328.1 -213.26)" fill="#e9f5ff"/>
      </g>
      <g id="Group_2372" data-name="Group 2372" transform="translate(24.625 0)">
        <path id="Path_3659" data-name="Path 3659" d="M403.314,248.055a34.817,34.817,0,0,1-44.974,33.289,34.811,34.811,0,0,0,0-66.57,34.817,34.817,0,0,1,44.974,33.281Z" transform="translate(-358.34 -213.26)" fill="#cdeaf7"/>
      </g>
    </g>
  </g>
</svg>
