<svg id="ChonBV" xmlns="http://www.w3.org/2000/svg" stroke-width="0" width="22.475" height="22.475" viewBox="0 0 22.475 22.475">
  <path id="Path_3846" data-name="Path 3846" d="M236.863,0h0l-.879,11.237.879,11.237h0A11.237,11.237,0,0,0,248.1,11.237h0A11.237,11.237,0,0,0,236.863,0Z" transform="translate(-225.625)" fill="#dce4ec"/>
  <path id="Path_3847" data-name="Path 3847" d="M11.237,0A11.237,11.237,0,0,0,0,11.237H0A11.237,11.237,0,0,0,11.237,22.475h0V0Z" fill="#f7f7f8"/>
  <path id="Path_3848" data-name="Path 3848" d="M239.113,115.04v-4.118h-2.25l-.879,6.333.879,6.4h2.25v-4.118h4.118v-4.5Z" transform="translate(-225.625 -106.053)" fill="#009e2a"/>
  <path id="Path_3849" data-name="Path 3849" d="M115.04,110.922v4.118h-4.118v4.5h4.118v4.118h2.25V110.922Z" transform="translate(-106.053 -106.053)" fill="#00dc3b"/>
</svg>
