<svg xmlns="http://www.w3.org/2000/svg" width="14.322" height="18" viewBox="0 0 14.322 18">
  <g id="Group_3923" data-name="Group 3923" transform="translate(-306.806 -125)">
    <path id="Path_4765" data-name="Path 4765" d="M187.379,62.9a13.894,13.894,0,0,0-1.662-2.9,20.785,20.785,0,0,0-2.017-2.338q-.822-.826-1.722-1.567a9.74,9.74,0,0,0-.894-.7l-.013-.009a.322.322,0,0,0-.332,0c-.3.2-.586.423-.87.645a21.611,21.611,0,0,0-1.889,1.671,18.665,18.665,0,0,0-2.2,2.6,12.171,12.171,0,0,0-1.644,3.309,8.213,8.213,0,0,0-.266,3.925,7.162,7.162,0,0,0,14.115-.313,7.605,7.605,0,0,0,.079-1.048v0a8.608,8.608,0,0,0-.689-3.278Zm-6.472,7.121a4.066,4.066,0,0,1-1.385-.242,4.207,4.207,0,0,1-1.961-1.5,4.042,4.042,0,0,1-.735-2.333.55.55,0,0,1,1.1,0,3.186,3.186,0,0,0,.015.324c0,.009,0,.033.007.057,0,.009.013.09.018.11a3.442,3.442,0,0,0,.156.572c.018.046.037.09.053.136-.013-.035-.02-.057-.024-.068.009.02.024.064.033.084.035.075.073.147.112.22s.088.15.134.222c.022.033.044.064.066.095.007.009.04.055.057.077l0,0c.018.022.035.044.042.051.029.033.057.066.086.1.053.057.106.112.161.165s.134.125.2.183c.015.013.048.035.068.048l-.055-.035c.033.02.062.046.092.068a3.7,3.7,0,0,0,.447.269c.04.02.079.04.119.057.013.007.026.011.037.018.07.026.141.053.214.077a3.613,3.613,0,0,0,.506.123.013.013,0,0,1,.009,0l-.026,0,.051.007c.04,0,.081.009.121.011.092.007.185.011.277.011a.549.549,0,1,1,0,1.1Z" transform="translate(133.06 69.657)" fill="#ff9700"/>
    <path id="Path_4808" data-name="Path 4808" d="M3.987-1.972A2.648,2.648,0,0,1,3.758-.836,1.724,1.724,0,0,1,3.1-.083a1.812,1.812,0,0,1-.977.265A1.825,1.825,0,0,1,1.153-.08,1.741,1.741,0,0,1,.49-.829,2.572,2.572,0,0,1,.252-1.948v-.217A2.634,2.634,0,0,1,.485-3.3a1.738,1.738,0,0,1,.66-.756,1.815,1.815,0,0,1,.974-.264,1.815,1.815,0,0,1,.974.264,1.738,1.738,0,0,1,.66.756,2.626,2.626,0,0,1,.233,1.137Zm-.916-.2a1.846,1.846,0,0,0-.247-1.048.8.8,0,0,0-.7-.358.805.805,0,0,0-.7.354,1.825,1.825,0,0,0-.25,1.038v.214A1.869,1.869,0,0,0,1.415-.929a.8.8,0,0,0,.711.371.8.8,0,0,0,.7-.357,1.858,1.858,0,0,0,.247-1.041ZM6.18,2.178H4.426V1.83L5.254.948A2.042,2.042,0,0,0,5.506.623.522.522,0,0,0,5.588.36.391.391,0,0,0,5.5.092a.311.311,0,0,0-.246-.1.335.335,0,0,0-.271.119.47.47,0,0,0-.1.312h-.51A.839.839,0,0,1,4.487,0a.786.786,0,0,1,.315-.3.959.959,0,0,1,.462-.11.908.908,0,0,1,.614.19A.671.671,0,0,1,6.1.31.86.86,0,0,1,6,.7a2.148,2.148,0,0,1-.337.459l-.582.613h1.1Z" transform="translate(312 136)" fill="#fff"/>
  </g>
</svg>
