<svg id="username" xmlns="http://www.w3.org/2000/svg" stroke-width="0" width="30" height="30" viewBox="0 0 30 30">
  <path id="shape" d="M65-38A15.005,15.005,0,0,0,50-23,15.005,15.005,0,0,0,65-8,15.005,15.005,0,0,0,80-23,15.005,15.005,0,0,0,65-38Zm0,4.5A4.494,4.494,0,0,1,69.5-29,4.494,4.494,0,0,1,65-24.5,4.494,4.494,0,0,1,60.5-29,4.494,4.494,0,0,1,65-33.5Zm0,21.3a10.8,10.8,0,0,1-9-4.83c.045-2.985,6-4.62,9-4.62s8.955,1.635,9,4.62A10.8,10.8,0,0,1,65-12.2Z" transform="translate(-50 38)" fill="#1ebdef"/>
</svg>
